<svg id="レイヤー_1" data-name="レイヤー 1" xmlns="http://www.w3.org/2000/svg" viewBox="0 0 214 131"><defs><style>.cls-1{fill:#fff;}.cls-2{fill:#009acf;}</style></defs><path class="cls-1" d="M62.38,129c-12.07,0-22-4.29-28.67-12.4-8.24-10-10.87-25.34-7.4-43.22C32.75,40.18,56.83,17,84.88,17,97,17,107,21.29,113.65,29.41c8.23,10,10.85,25.32,7.38,43.21C114.59,105.81,90.47,129,62.38,129ZM80.07,37.79c-14.56,0-26.62,13.67-30.73,34.83-2.51,13-1.12,23.13,4,29.38a17.27,17.27,0,0,0,13.82,6.2c14.61,0,26.7-13.67,30.8-34.82,2.52-13,1.13-23.12-4-29.36A17.38,17.38,0,0,0,80.07,37.79Z"/><path class="cls-2" d="M84.88,19C96.39,19,105.8,23,112.11,30.68c7.84,9.51,10.31,24.26,7,41.56-3.2,16.49-10.6,30.46-21.4,40.41C87.6,121.9,75.07,127,62.38,127c-11.45,0-20.83-4-27.13-11.68-7.85-9.52-10.33-24.28-7-41.56,3.21-16.52,10.61-30.51,21.4-40.44C59.71,24.08,72.21,19,84.88,19M67.19,110.2c7.6,0,14.7-3.37,20.53-9.74S97.81,84.81,100,73.76c2.63-13.57,1.09-24.3-4.45-31a19.29,19.29,0,0,0-15.44-7c-15.57,0-28.4,14.3-32.69,36.44-2.63,13.58-1.1,24.31,4.45,31a19.2,19.2,0,0,0,15.36,6.93M84.88,15C57.44,15,31.39,36.68,24.35,73s10.59,58,38,58S116,109.24,123,73,112.4,15,84.88,15ZM67.19,106.2c-12.56,0-20.1-11.44-15.88-33.2s16.2-33.2,28.76-33.2S100.25,51.24,96,73s-16.2,33.2-28.84,33.2Z"/><path class="cls-1" d="M156.45,129c-15.31,0-27.28-5-34-14.11l15.27-14.27c5.37,5.94,13.07,9.18,21.91,9.18,11.73,0,20-5.22,21.65-13.62a9.91,9.91,0,0,0-2-8.46c-3.11-3.77-9.18-5.84-17.09-5.84H152l3.65-18.8h11.15c11.45,0,19.86-5.19,21.42-13.22a10.26,10.26,0,0,0-1.94-8.78c-2.63-3.2-7.33-4.88-13.6-4.88-10.73,0-18.95,4.91-24.36,9.61L139,32.25C150.35,22,163.23,17,178.31,17c13,0,23.29,3.78,28.94,10.63,4.21,5.09,5.65,11.77,4.19,19.31-2.09,10.81-9,19.05-20,23.83l-4.19,1.83,4.19,1.84c10.23,4.49,14.54,12.49,12.48,23.15C199.73,119.28,177.05,129,156.45,129Z"/><path class="cls-2" d="M178.31,19c12.41,0,22.14,3.52,27.4,9.9,3.86,4.69,5.13,10.63,3.77,17.66-2,10.13-8.47,17.87-18.82,22.38l-8.38,3.66,8.37,3.67c9.28,4.07,13.19,11.31,11.32,20.94-4,20.58-25.74,29.8-45.52,29.8-13.84,0-24.78-4.2-31.25-11.9l12.5-11.68c5.64,5.43,13.29,8.38,22,8.38,12.74,0,21.79-5.84,23.62-15.24a11.87,11.87,0,0,0-2.43-10.11c-3.49-4.24-10.11-6.57-18.63-6.57h-7.79l2.87-14.8h9.5c12.46,0,21.63-5.83,23.38-14.84a12.18,12.18,0,0,0-2.35-10.44c-3-3.66-8.27-5.6-15.15-5.6a38.39,38.39,0,0,0-23.95,8.67l-7.08-10.3A54.18,54.18,0,0,1,178.31,19m0-4c-18.16,0-31.64,7.2-41.93,17L148,48.84c5.9-5.68,14.3-10.64,24.7-10.64,9.12,0,15,3.92,13.57,11.28-1.47,7.6-9.77,11.6-19.45,11.6H154l-4.42,22.8h12.64c10.64,0,18.65,4.08,17.13,11.92-1.58,8.16-10.09,12-19.69,12-9,0-16.74-3.6-21.73-10.08L119.87,114.6c6.77,10.48,19.54,16.4,36.58,16.4,22.16,0,45.11-10.64,49.45-33C208.18,86.2,203,77.32,192.26,72.6c11.19-4.88,18.88-13.6,21.14-25.28C217.19,27.79,202.63,15,178.31,15Z"/></svg>