<svg id="レイヤー_1" data-name="レイヤー 1" xmlns="http://www.w3.org/2000/svg" viewBox="0 0 214 131"><defs><style>.cls-1{fill:#fff;}.cls-2{fill:#009acf;}</style></defs><path class="cls-1" d="M64.11,129c-12.07,0-22-4.29-28.67-12.4-8.24-10-10.87-25.34-7.4-43.22C34.48,40.18,58.56,17,86.61,17c12.13,0,22.08,4.3,28.78,12.42,8.22,10,10.84,25.32,7.37,43.21C116.32,105.81,92.2,129,64.11,129ZM81.8,37.79c-14.56,0-26.62,13.67-30.73,34.83-2.51,13-1.12,23.13,4,29.38a17.29,17.29,0,0,0,13.82,6.2c14.61,0,26.7-13.67,30.8-34.82,2.52-13,1.13-23.12-4-29.36A17.37,17.37,0,0,0,81.8,37.79Z"/><path class="cls-2" d="M86.61,19c11.51,0,20.93,4.05,27.23,11.69,7.84,9.51,10.31,24.26,7,41.56-3.2,16.49-10.61,30.46-21.41,40.41C89.33,121.9,76.8,127,64.11,127c-11.45,0-20.83-4-27.13-11.68C29.13,105.8,26.65,91,30,73.76c3.21-16.52,10.61-30.51,21.4-40.44C61.44,24.08,73.94,19,86.61,19M68.92,110.2c7.6,0,14.7-3.37,20.53-9.74s10.09-15.65,12.24-26.7c2.63-13.57,1.09-24.3-4.45-31a19.29,19.29,0,0,0-15.44-7c-15.56,0-28.39,14.3-32.69,36.44-2.63,13.58-1.1,24.31,4.45,31a19.22,19.22,0,0,0,15.36,6.93M86.61,15C59.17,15,33.12,36.68,26.08,73s10.59,58,38,58,53.58-21.76,60.61-58S114.13,15,86.61,15ZM68.92,106.2C56.36,106.2,48.82,94.76,53,73S69.24,39.8,81.8,39.8,102,51.24,97.76,73s-16.2,33.2-28.84,33.2Z"/><path class="cls-1" d="M126.51,127l3.34-17.23,45.62-37.55c7-5.68,11-11.59,12.21-18,.88-4.53,0-8.65-2.44-11.63s-6.6-4.76-11.45-4.76c-10.31,0-18.22,5.68-24.85,11.48l-9.72-14.33C151.79,23,166,17,181.32,17c11.29,0,20,3.38,25.3,9.75,4.91,6,6.5,14.27,4.6,24-2.31,11.92-8,20.06-22.6,32.28l-28.48,23.86h42.68L198.92,127Z"/><path class="cls-2" d="M181.32,19c10.67,0,18.89,3.12,23.76,9,4.51,5.47,6,13.21,4.18,22.37C207,61.94,201.69,69.5,187.33,81.53l-24.26,20.32-8.44,7.07h45.76L197.27,125H128.94l2.74-14.15,45-37.08c7.34-6,11.57-12.28,12.91-19.21,1-5.12,0-9.84-2.86-13.28s-7.53-5.48-13-5.48c-10.09,0-17.9,5-24.45,10.49l-7.5-11C153.71,24.46,167,19,181.32,19m0-4c-21.44,0-36.09,11.2-44.7,19.69l11.95,17.6c7.27-6.56,15.06-12.48,25.22-12.48,8.48,0,13.55,5.6,11.93,14-1.18,6.08-5.06,11.6-11.52,16.88l-46.17,38L124.09,129h76.48l4.67-24.08h-39.6L189.9,84.6c13.85-11.6,20.7-20.08,23.29-33.44C217.41,29.39,204.92,15,181.32,15Z"/></svg>