<svg xmlns="http://www.w3.org/2000/svg" width="457.063" height="37.437" viewBox="0 0 457.063 37.437">
  <defs>
    <style>
      .cls-1 {
        fill: #fff;
        fill-rule: evenodd;
      }
    </style>
  </defs>
  <path id="txt_outline01.svg" class="cls-1" d="M522.977,93.056h-6.7v17.076L503.522,93.056h-6.4V121.05H503.8V103.974l12.757,17.076h6.419V93.056Zm11,8.378h-6.259V121.05h6.259V101.434Zm-3.16-9.8a3.739,3.739,0,1,0,3.739,3.759A3.688,3.688,0,0,0,530.822,91.637Zm19.378,9.257a6.29,6.29,0,0,0-5.839,3v-2.46h-6V121.05h6.258V110.492c0-2.539,1.44-3.719,3.179-3.719,1.94,0,3.1,1.3,3.1,3.619V121.05h6.258V108.173C557.158,103.634,554.119,100.894,550.2,100.894Zm26.1,0.54h-6.7V95.716h-6.259v5.718h-3.659v5.539h3.659v6.538c0,4.919,2.38,8.058,7.639,8.058a11.186,11.186,0,0,0,6.958-2.179l-2.16-4.879a7.275,7.275,0,0,1-3.4,1.22c-1.579,0-2.779-.76-2.779-3.019v-5.739h6.7v-5.539Zm12.622-.54c-5.959,0-10.058,4.279-10.058,10.458,0,6.118,4.179,10.217,10.337,10.217a11.918,11.918,0,0,0,8.638-3.219l-4.039-3.759a6.524,6.524,0,0,1-4.279,1.72,3.905,3.905,0,0,1-4.2-3.139h13.3a13.4,13.4,0,0,0,.12-1.94C598.718,105.093,594.739,100.894,588.921,100.894Zm0.02,5.319a3.492,3.492,0,0,1,3.539,3h-7.139A3.472,3.472,0,0,1,588.941,106.213Zm25-5.319a6.289,6.289,0,0,0-5.839,3v-2.46h-6V121.05h6.259V110.492c0-2.539,1.44-3.719,3.179-3.719,1.94,0,3.1,1.3,3.1,3.619V121.05H620.9V108.173C620.9,103.634,617.859,100.894,613.94,100.894Zm19.32,0c-5.259,0-9.138,4.559-9.138,10.318,0,5.8,3.879,10.357,9.118,10.357a6.731,6.731,0,0,0,5.639-2.639v2.12h6.038V92.257h-6.238v11.057A6.707,6.707,0,0,0,633.26,100.894Zm1.48,5.839a4.511,4.511,0,1,1-4.179,4.5A4.2,4.2,0,0,1,634.74,106.733Zm24.159-5.839c-6.118,0-10.637,4.4-10.637,10.338s4.519,10.337,10.637,10.337c6.139,0,10.658-4.4,10.658-10.337S665.038,100.894,658.9,100.894Zm0,5.839a4.507,4.507,0,1,1-4.239,4.5A4.226,4.226,0,0,1,658.9,106.733Zm46-11.217a21.491,21.491,0,0,0-11.3-2.959c-6.538,0-11.177,3.439-11.277,8.877-0.1,5.039,3.019,7.639,8.778,8.538l1.4,0.22c3.66,0.56,5.539,1.04,5.539,2.72,0,1.739-1.919,2.6-4.439,2.6a15.708,15.708,0,0,1-9.038-2.939l-3.339,5.438c3.1,2.34,7.658,3.559,12.317,3.559,6,0,11.737-2.779,11.737-9.437,0-4.579-3.419-7.119-8.858-8.058l-1.159-.2c-3.1-.54-5.759-0.96-5.759-2.72,0-1.659,1.86-2.519,4.4-2.519a15.591,15.591,0,0,1,8.018,2.359Zm22.262,5.918H720.9l-3.959,12.457-3.779-12.457H706.5l6.778,19.616h6.938L724,109.312l3.819,11.738H734.8l6.758-19.616h-6.578l-3.819,12.517Zm23.263,0h-6.259V121.05h6.259V101.434Zm-3.16-9.8A3.739,3.739,0,1,0,751,95.4,3.688,3.688,0,0,0,747.26,91.637Zm22.617,9.8h-6.7V95.716H756.92v5.718h-3.659v5.539h3.659v6.538c0,4.919,2.38,8.058,7.638,8.058a11.187,11.187,0,0,0,6.959-2.179l-2.16-4.879a7.279,7.279,0,0,1-3.4,1.22c-1.58,0-2.779-.76-2.779-3.019v-5.739h6.7v-5.539Zm13.141-.54c-6.258,0-10.577,4.339-10.577,10.338s4.319,10.337,10.577,10.337a9.915,9.915,0,0,0,8.4-4.259l-4.879-3.479a4.576,4.576,0,0,1-3.7,1.9c-2.179,0-4-1.66-4-4.5,0-2.819,1.86-4.5,4.039-4.5a4.309,4.309,0,0,1,3.619,1.88l4.9-3.42A9.866,9.866,0,0,0,783.018,100.894ZM800.5,92.237H794.24V121.05H800.5V110.492c0-2.539,1.44-3.719,3.179-3.719,1.94,0,3.1,1.3,3.1,3.619V121.05h6.259V108.173c0-4.539-3.039-7.279-6.958-7.279a6.345,6.345,0,0,0-5.579,2.6V92.237Zm48.775,3.279a21.491,21.491,0,0,0-11.3-2.959c-6.539,0-11.177,3.439-11.277,8.877-0.1,5.039,3.019,7.639,8.777,8.538l1.4,0.22c3.659,0.56,5.539,1.04,5.539,2.72,0,1.739-1.92,2.6-4.439,2.6a15.7,15.7,0,0,1-9.038-2.939L825.6,118.01c3.1,2.34,7.658,3.559,12.317,3.559,6,0,11.737-2.779,11.737-9.437,0-4.579-3.419-7.119-8.858-8.058l-1.16-.2c-3.1-.54-5.758-0.96-5.758-2.72,0-1.659,1.859-2.519,4.4-2.519a15.594,15.594,0,0,1,8.018,2.359Zm15.762,5.378a6.7,6.7,0,0,0-5.618,2.66v-2.12h-6.039v27.614h6.239V119.19a6.711,6.711,0,0,0,5.418,2.379c5.239,0,9.138-4.558,9.138-10.357C874.174,105.453,870.275,100.894,865.036,100.894Zm-1.5,5.839a4.511,4.511,0,1,1-4.179,4.5A4.191,4.191,0,0,1,863.537,106.733Zm23.6-5.839c-6.118,0-10.637,4.4-10.637,10.338s4.519,10.337,10.637,10.337c6.139,0,10.658-4.4,10.658-10.337S893.275,100.894,887.136,100.894Zm0,5.839a4.507,4.507,0,1,1-4.238,4.5A4.226,4.226,0,0,1,887.136,106.733Zm25.38-5.839a5.8,5.8,0,0,0-5.359,2.8v-2.26h-6V121.05h6.258v-10.6c0-2.439,1.36-3.539,3.579-3.539a10.517,10.517,0,0,1,3.14.52l0.58-6.239A8.167,8.167,0,0,0,912.516,100.894Zm20.539,0.54h-6.7V95.716H920.1v5.718h-3.659v5.539H920.1v6.538c0,4.919,2.379,8.058,7.638,8.058a11.184,11.184,0,0,0,6.958-2.179l-2.159-4.879a7.283,7.283,0,0,1-3.4,1.22c-1.58,0-2.78-.76-2.78-3.019v-5.739h6.7v-5.539Zm20.6,1.16a20.635,20.635,0,0,0-8.438-1.68c-5.339,0-8.478,2.38-8.478,6.559,0,3.519,2.2,5.479,6.918,6.178l1.14,0.16c2.22,0.34,3.1.64,3.1,1.4,0,0.84-.8,1.28-2.739,1.28a13.2,13.2,0,0,1-6.918-1.84l-2.18,4.839c2.24,1.46,5.7,2.059,9.058,2.059,5.719,0,9.078-2.579,9.078-6.878,0-3.3-2.22-5.319-6.419-5.958l-1.439-.22c-1.92-.3-3.159-0.5-3.159-1.34,0-.72.639-1.2,2.279-1.2a18.659,18.659,0,0,1,6.458,1.52Z" transform="translate(-497.125 -91.625)"/>
</svg>
