<svg xmlns="http://www.w3.org/2000/svg" width="42" height="25" viewBox="0 0 42 25">
  <defs>
    <style>
      .cls-1 {
        fill: #009acf;
        fill-rule: evenodd;
        mix-blend-mode: multiply;
      }
    </style>
  </defs>
  <path id="txt_play_slide01.svg" class="cls-1" d="M15,0.4C9.2,0.4,3.7,5,2.2,12.7C0.7,20.4,4.4,25,10.2,25c5.8,0,11.4-4.6,12.8-12.3
	C24.6,5,20.8,0.4,15,0.4z M14,5.7c2.7,0,4.3,2.4,3.4,7s-3.4,7-6.1,7c-2.7,0-4.3-2.4-3.4-7S11.3,5.7,14,5.7z M28.1,8.3
	c1.5-1.4,3.2-2.6,5.3-2.6c1.3-0.2,2.4,0.8,2.6,2c0,0.3,0,0.6-0.1,0.9c-0.4,1.4-1.2,2.7-2.4,3.6l-9.8,8.1l-0.8,4.3h16.2l1-5.1h-8.4
	l5.1-4.3c2.9-2.5,4.4-4.3,4.9-7.1c0.9-4.6-1.7-7.7-6.7-7.7c-3.6,0.1-7,1.6-9.5,4.2L28.1,8.3z"/>
</svg>
