<svg id="レイヤー_1" data-name="レイヤー 1" xmlns="http://www.w3.org/2000/svg" viewBox="0 0 214 131"><defs><style>.cls-1{fill:#fff;}.cls-2{fill:#009acf;}</style></defs><path class="cls-1" d="M57.19,128.92c-12.06,0-22-4.29-28.66-12.4-8.24-10-10.87-25.34-7.4-43.22C27.57,40.1,51.65,16.91,79.7,16.91c12.12,0,22.07,4.3,28.77,12.42,8.23,10,10.84,25.32,7.37,43.21C109.4,105.73,85.29,128.92,57.19,128.92ZM74.88,37.71c-14.56,0-26.62,13.67-30.72,34.83-2.52,13-1.12,23.13,4,29.38A17.27,17.27,0,0,0,62,108.12c14.62,0,26.71-13.67,30.81-34.82,2.51-13,1.12-23.12-4-29.36A17.39,17.39,0,0,0,74.88,37.71Z"/><path class="cls-2" d="M79.7,18.91c11.51,0,20.92,4.05,27.23,11.69,7.84,9.51,10.3,24.26,6.95,41.56-3.2,16.49-10.6,30.46-21.4,40.41-10.06,9.25-22.59,14.35-35.29,14.35-11.44,0-20.82-4-27.12-11.68-7.85-9.52-10.33-24.28-7-41.56,3.2-16.52,10.6-30.51,21.4-40.44C54.53,24,67,18.91,79.7,18.91M62,110.12c7.61,0,14.71-3.37,20.53-9.74s10.1-15.65,12.24-26.7c2.64-13.57,1.1-24.3-4.44-31a19.3,19.3,0,0,0-15.45-7C59.32,35.72,46.49,50,42.2,72.16c-2.64,13.58-1.1,24.31,4.44,31A19.22,19.22,0,0,0,62,110.12M79.7,14.91c-27.45,0-53.49,21.69-60.54,58s10.59,58,38,58,53.59-21.76,60.62-58-10.59-58-38.11-58ZM62,106.12c-12.56,0-20.1-11.44-15.88-33.2s16.2-33.2,28.76-33.2,20.19,11.44,16,33.2-16.2,33.2-28.85,33.2Z"/><path class="cls-1" d="M156,129c-14.59,0-27.17-4.93-34.83-13.58l14-16.09a38.09,38.09,0,0,0,25.25,10c10.95,0,18.58-5.63,20.41-15.06.75-3.86.09-7.09-2-9.59-3-3.66-8.67-5.43-17.29-5.43H136.4l13-60.33h62.13l-3.85,19.85h-43.8l-4.78,21.6h13.53c12.6,0,22,3.38,27.33,9.79,4.42,5.36,5.86,12.82,4.16,21.59C199.85,114,180.5,129,156,129Z"/><path class="cls-2" d="M209.15,20.91l-3.07,15.85H162.32l-.69,3.13-3.9,17.6-1.07,4.87h16c12,0,20.9,3.13,25.79,9.06,4,4.89,5.32,11.78,3.74,19.94C198.07,112.68,179.51,127,156,127c-13.27,0-24.77-4.2-32.13-11.63l11.49-13.2a40.51,40.51,0,0,0,25.07,9.15c11.81,0,20.38-6.39,22.38-16.68,1.08-5.58-.71-9.19-2.4-11.25-3.42-4.14-9.58-6.15-18.84-6.15H138.88l12.18-56.33h58.09m4.85-4H147.84L133.92,81.24H161.6c14.88,0,18.68,5.6,17.31,12.64-1.57,8.08-8,13.44-18.45,13.44-10.8,0-20.82-5.68-25.31-11l-16.58,19c7.27,9.12,20.26,15.6,37.46,15.6,24.4,0,45.45-14.88,50.1-38.88C210,72.2,198.6,58.36,172.68,58.36h-11l3.89-17.6h43.85L214,16.91Z"/></svg>