<svg id="レイヤー_1" data-name="レイヤー 1" xmlns="http://www.w3.org/2000/svg" viewBox="0 0 214 131"><defs><style>.cls-1{fill:#fff;}.cls-2{fill:#009acf;}</style></defs><path class="cls-1" d="M58.2,129c-12.06,0-22-4.29-28.67-12.4-8.24-10-10.86-25.34-7.4-43.22C28.57,40.18,52.66,17,80.7,17c12.13,0,22.08,4.3,28.78,12.42,8.22,10,10.84,25.32,7.37,43.21C110.41,105.81,86.3,129,58.2,129ZM75.89,37.79c-14.56,0-26.62,13.67-30.72,34.83-2.52,13-1.13,23.13,4,29.38A17.3,17.3,0,0,0,63,108.2c14.61,0,26.7-13.67,30.81-34.82,2.51-13,1.12-23.12-4-29.36A17.36,17.36,0,0,0,75.89,37.79Z"/><path class="cls-2" d="M80.7,19c11.51,0,20.93,4.05,27.24,11.69,7.83,9.51,10.3,24.26,7,41.56-3.2,16.49-10.6,30.46-21.4,40.41C83.43,121.9,70.9,127,58.2,127c-11.44,0-20.82-4-27.12-11.68-7.86-9.52-10.33-24.28-7-41.56,3.2-16.52,10.6-30.51,21.4-40.44C55.53,24.08,68,19,80.7,19M63,110.2c7.61,0,14.71-3.37,20.53-9.74s10.1-15.65,12.24-26.7c2.63-13.57,1.1-24.3-4.44-31a19.3,19.3,0,0,0-15.45-7c-15.56,0-28.39,14.3-32.68,36.44-2.64,13.58-1.1,24.31,4.44,31A19.22,19.22,0,0,0,63,110.2M80.7,15C53.26,15,27.22,36.68,20.17,73s10.59,58,38,58,53.59-21.76,60.62-58S108.23,15,80.7,15ZM63,106.2c-12.56,0-20.1-11.44-15.88-33.2s16.2-33.2,28.76-33.2,20.19,11.44,16,33.2S75.65,106.2,63,106.2Z"/><polygon class="cls-1" points="168.04 127 171.75 107.88 122.39 107.88 125.37 92.5 175.58 19.07 199.2 19.07 151.79 87.8 175.65 87.8 178.12 75.06 189.41 58.36 203.21 58.36 197.49 87.8 211.57 87.8 207.68 107.88 193.6 107.88 189.89 127 168.04 127"/><path class="cls-2" d="M195.39,21.07,152.3,83.53,148,89.8H177.3l.62-3.24L180,75.84l10.47-15.48h10.31L196,85l-.92,4.76h14.08L206,105.88H192l-.63,3.24L188.24,125H170.47l2.78-14.36.93-4.76H124.81l2.45-12.59,49.38-72.22h18.75m7.62-4H174.53l-51,74.65L120,109.88h49.37L165.62,129h25.92l3.71-19.12h14.08L214,85.8H199.92l5.71-29.44H188.35L176.23,74.28,174,85.8H155.6L203,17.07Z"/></svg>