<svg id="レイヤー_1" data-name="レイヤー 1" xmlns="http://www.w3.org/2000/svg" viewBox="0 0 214 131"><defs><style>.cls-1{fill:#fff;}.cls-2{fill:#009acf;}</style></defs><path class="cls-1" d="M85.58,129c-12.06,0-22-4.29-28.67-12.4-8.24-10-10.86-25.34-7.4-43.22C56,40.18,80,17,108.08,17c12.13,0,22.08,4.3,28.78,12.42,8.22,10,10.84,25.32,7.37,43.21C137.79,105.81,113.68,129,85.58,129Zm17.69-91.21c-14.56,0-26.62,13.67-30.72,34.83-2.52,13-1.13,23.13,4,29.38a17.3,17.3,0,0,0,13.82,6.2c14.61,0,26.7-13.67,30.81-34.82,2.51-13,1.12-23.12-4-29.36A17.36,17.36,0,0,0,103.27,37.79Z"/><path class="cls-2" d="M108.08,19C119.59,19,129,23,135.32,30.68c7.83,9.51,10.3,24.26,7,41.56-3.2,16.49-10.6,30.46-21.4,40.41C110.81,121.9,98.28,127,85.58,127c-11.44,0-20.82-4-27.12-11.68-7.86-9.52-10.33-24.28-7-41.56,3.2-16.52,10.6-30.51,21.4-40.44C82.91,24.08,95.42,19,108.08,19M90.39,110.2c7.61,0,14.71-3.37,20.53-9.74s10.1-15.65,12.24-26.7c2.63-13.57,1.1-24.3-4.44-31a19.3,19.3,0,0,0-15.45-7c-15.56,0-28.39,14.3-32.68,36.44-2.64,13.58-1.1,24.31,4.44,31a19.22,19.22,0,0,0,15.36,6.93M108.08,15C80.64,15,54.6,36.68,47.55,73s10.59,58,38,58,53.59-21.76,60.62-58-10.59-58-38.12-58ZM90.39,106.2c-12.56,0-20.1-11.44-15.88-33.2s16.2-33.2,28.76-33.2,20.19,11.44,16,33.2S103,106.2,90.39,106.2Z"/><polygon class="cls-1" points="168.44 127 183.77 47.94 156.88 57.46 160.95 36.49 211.37 18.31 190.28 127 168.44 127"/><path class="cls-2" d="M208.73,21.39,188.63,125H170.86l14.21-73.24,1.33-6.87-6.59,2.34-20.3,7.18L162.7,38l46-16.6M214,15.23,159.2,35l-4.95,25.52L181.14,51,166,129h25.92L214,15.23Z"/></svg>