<svg id="レイヤー_1" data-name="レイヤー 1" xmlns="http://www.w3.org/2000/svg" viewBox="0 0 42 25"><defs><style>.cls-1{fill:#009acf;}</style></defs><path class="cls-1" d="M13.54.4C7.73.4,2.21,5,.71,12.69S3,25,8.77,25s11.35-4.61,12.85-12.29S19.37.4,13.54.4Zm-1,5.25c2.68,0,4.28,2.43,3.38,7s-3.43,7-6.11,7-4.26-2.43-3.37-7S9.86,5.65,12.52,5.65Z"/><path class="cls-1" d="M42,.82H28L25,14.45h5.86c3.16,0,4,1.19,3.67,2.68C34.23,18.85,32.85,20,30.65,20a7.56,7.56,0,0,1-5.37-2.32l-3.51,4C23.31,23.63,26.06,25,29.71,25c5.17,0,9.63-3.15,10.62-8.24.82-4.22-1.6-7.16-7.09-7.16H30.9l.83-3.73H41Z"/></svg>