<svg id="レイヤー_1" data-name="レイヤー 1" xmlns="http://www.w3.org/2000/svg" viewBox="0 0 42 25"><defs><style>.cls-1{fill:#009acf;}</style></defs><path class="cls-1" d="M14.64.41C8.83.41,3.3,5,1.81,12.71S4.05,25,9.87,25s11.35-4.61,12.85-12.29S20.47.41,14.64.41Zm-1,5.26c2.68,0,4.28,2.43,3.38,7s-3.43,7-6.11,7-4.26-2.42-3.37-7S11,5.67,13.62,5.67Z"/><path class="cls-1" d="M34.44.41A12.48,12.48,0,0,0,25.55,4L28,7.59a7.54,7.54,0,0,1,5.24-2.26c1.93,0,3.17.83,2.87,2.39S34.05,10.18,32,10.18H29.29L28.35,15H31c2.25,0,3.95.87,3.63,2.53s-2.14,2.54-4.18,2.54A5.63,5.63,0,0,1,25.88,18l-3.83,3.57C23.48,23.75,26.19,25,29.8,25c4.7,0,9.56-2.26,10.48-7a4.55,4.55,0,0,0-2.89-5.38,7.28,7.28,0,0,0,4.48-5.36C42.68,3.13,39.59.41,34.44.41Z"/></svg>